<svg xmlns="http://www.w3.org/2000/svg" xmlns:xlink="http://www.w3.org/1999/xlink" width="1243" height="112.315" viewBox="0 0 1243 112.315"><defs><style>.a{fill:url(#a);}.b{fill:url(#b);}.c{fill:url(#c);}.d{fill:url(#d);}.e{fill:#222;font-size:20px;}.e,.g{font-family:ProximaNova-Semibold, Proxima Nova;font-weight:600;}.f{fill:#06bcfd;}.f,.h,.i,.j,.k{stroke:#fff;stroke-width:4px;}.g{fill:#fff;font-size:50px;}.h{fill:#17b4f0;}.i{fill:#009fdb;}.j{fill:#239ac7;}.k{fill:#016d96;}.l{stroke:none;}.m{fill:none;}</style><linearGradient id="a" y1="0.5" x2="1" y2="0.5" gradientUnits="objectBoundingBox"><stop offset="0" stop-color="#06bcfd"/><stop offset="1" stop-color="#17b4f0"/></linearGradient><linearGradient id="b" y1="0.5" x2="1" y2="0.5" gradientUnits="objectBoundingBox"><stop offset="0" stop-color="#17b4f0"/><stop offset="1" stop-color="#009fdb"/></linearGradient><linearGradient id="c" y1="0.5" x2="1" y2="0.5" gradientUnits="objectBoundingBox"><stop offset="0" stop-color="#009fdb"/><stop offset="1" stop-color="#239ac7"/></linearGradient><linearGradient id="d" y1="0.5" x2="1" y2="0.5" gradientUnits="objectBoundingBox"><stop offset="0" stop-color="#239ac7"/><stop offset="1" stop-color="#016d96"/></linearGradient></defs><g transform="translate(-329 -3173.685)"><rect class="a" width="240" height="24" transform="translate(393 3231)"/><rect class="b" width="240" height="24" transform="translate(680 3231)"/><rect class="c" width="240" height="24" transform="translate(973 3231)"/><rect class="d" width="240" height="24" transform="translate(1265 3231)"/><text class="e" transform="translate(372.526 3191.685)"><tspan x="-23.46" y="0">STEP</tspan></text><g class="f" transform="translate(329 3199)"><circle class="l" cx="43.5" cy="43.5" r="43.5"/><circle class="m" cx="43.5" cy="43.5" r="41.5"/></g><text class="g" transform="translate(370.526 3259.685)"><tspan x="-9.5" y="0">1</tspan></text><text class="e" transform="translate(660.526 3191.685)"><tspan x="-23.46" y="0">STEP</tspan></text><g class="h" transform="translate(617 3199)"><circle class="l" cx="43.5" cy="43.5" r="43.5"/><circle class="m" cx="43.5" cy="43.5" r="41.5"/></g><text class="g" transform="translate(660.526 3259.685)"><tspan x="-14.875" y="0">2</tspan></text><text class="e" transform="translate(949.526 3191.685)"><tspan x="-23.46" y="0">STEP</tspan></text><g class="i" transform="translate(906 3199)"><circle class="l" cx="43.5" cy="43.5" r="43.5"/><circle class="m" cx="43.5" cy="43.5" r="41.5"/></g><text class="g" transform="translate(949.526 3259.685)"><tspan x="-14.35" y="0">3</tspan></text><text class="e" transform="translate(1240.526 3191.685)"><tspan x="-23.46" y="0">STEP</tspan></text><g class="j" transform="translate(1197 3199)"><circle class="l" cx="43.5" cy="43.5" r="43.5"/><circle class="m" cx="43.5" cy="43.5" r="41.5"/></g><text class="g" transform="translate(1240.526 3259.685)"><tspan x="-14.5" y="0">4</tspan></text><text class="e" transform="translate(1528.526 3191.685)"><tspan x="-23.46" y="0">STEP</tspan></text><g class="k" transform="translate(1485 3199)"><circle class="l" cx="43.5" cy="43.5" r="43.5"/><circle class="m" cx="43.5" cy="43.5" r="41.5"/></g><text class="g" transform="translate(1528.526 3259.685)"><tspan x="-15" y="0">5</tspan></text></g></svg>